# AST/ASF file generated using VICON BodyLanguage
# -----------------------------------------------
:version 1.10
:name VICON
:units
  mass 1.0
  length 0.45
  angle deg
:documentation
   .ast/.asf automatically generated from VICON data using
   VICON BodyBuilder and BodyLanguage model FoxedUp or BRILLIANT.MOD
:root
   order TX TY TZ RX RY RZ
   axis XYZ
   position 0 0 0  
   orientation 0 0 0 
:bonedata
  begin
     id 1 
     name lhipjoint
     direction 0.653368 -0.678499 0.335782 
     length 2.51848 
     axis 0 0 0  XYZ
  end
  begin
     id 2 
     name lfemur
     direction 0.34202 -0.939693 0  
     length 6.57749  
     axis 0 0 20  XYZ
    dof rx ry rz
    limits (-160.0 20.0)
           (-70.0 70.0)
           (-60.0 70.0)
  end
  begin
     id 3 
     name ltibia
     direction 0.34202 -0.939693 0   
     length 7.94618   
     axis 0 0 20   XYZ
    dof rx
    limits (-10.0 170.0)
  end
  begin
     id 4 
     name lfoot
     direction 0.0811271 -0.222895 0.971461   
     length 2.31339   
     axis -90 7.62852e-016 20   XYZ
    dof rx rz
    limits (-45.0 90.0)
           (-70.0 20.0)
  end
  begin
     id 5 
     name ltoes
     direction 1.53568e-011 -4.21885e-011 1   
     length 1.15935   
     axis -90 7.62852e-016 20   XYZ
    dof rx
    limits (-90.0 20.0)
  end
  begin
     id 6 
     name rhipjoint
     direction -0.640058 -0.688614 0.340788   
     length 2.48149  
     axis 0 0 0  XYZ 
  end
  begin
     id 7 
     name rfemur
     direction -0.34202 -0.939693 0   
     length 6.57875   
     axis 0 0 -20   XYZ
    dof rx ry rz
    limits (-160.0 20.0)
           (-70.0 70.0)
           (-70.0 60.0)
  end
  begin
     id 8 
     name rtibia
     direction -0.34202 -0.939693 0   
     length 7.977   
     axis 0 0 -20   XYZ
    dof rx
    limits (-10.0 170.0)
 end
 begin
     id 9 
     name rfoot
     direction -0.0979793 -0.269196 0.958089   
     length 2.19857  
     axis -90 -7.62852e-016 -20   XYZ
    dof rx rz
    limits (-45.0 90.0)
           (-20.0 70.0)
  end
  begin
     id 10 
     name rtoes
     direction -1.53556e-011 -4.21868e-011 1   
     length 1.09838   
     axis -90 -7.62852e-016 -20   XYZ
    dof rx
    limits (-90.0 20.0)
  end
  begin
     id 11 
     name lowerback
     direction 0.0149039 0.998517 -0.0523597   
     length 2.10809   
     axis 0 0 0   XYZ
    dof rx ry rz
    limits (-20.0 45.0)
           (-30.0 30.0)
           (-30.0 30.0)
  end
  begin
     id 12 
     name upperback
     direction -0.00882659 0.999418 -0.0329624   
     length 2.1102   
     axis 0 0 0   XYZ
    dof rx ry rz
    limits (-20.0 45.0)
           (-30.0 30.0)
           (-30.0 30.0)
  end
  begin
     id 13 
     name thorax
     direction -0.0165585 0.999826 -0.0085833   
     length 2.11039   
     axis 0 0 0   XYZ
    dof rx ry rz
    limits (-20.0 45.0)
           (-30.0 30.0)
           (-30.0 30.0)
  end
  begin
     id 14 
     name lowerneck
     direction -0.0130877 0.999911 0.00260353   
     length 1.73253   
     axis 0 0 0   XYZ
    dof rx ry rz
    limits (-20.0 45.0)
           (-30.0 30.0)
           (-30.0 30.0)
  end
  begin
     id 15 
     name upperneck
     direction -0.0348454 0.928205 -0.370435   
     length 1.66692   
     axis 0 0 0   XYZ
    dof rx ry rz
    limits (-20.0 45.0)
           (-30.0 30.0)
           (-30.0 30.0)
  end
  begin
     id 16
     name head
     direction -0.00807754 0.992494 -0.122026  
     length 1.72765  
     axis 0 0 0   XYZ
    dof rx ry rz
    limits (-20.0 45.0)
           (-30.0 30.0)
           (-30.0 30.0)
  end
  begin
     id 17 
     name lclavicle
     direction 0.987582 0.144023 0.0627671  
     length 3.49235  
     axis 0 0 0   XYZ
    dof ry rz
    limits (-20.0 10.0)
           (0.0 20.0)
  end
  begin
     id 18 
     name lhumerus
     direction 1 -4.48958e-011 -1.45183e-018   
     length 5.41917   
     axis 180 -30 -90   XYZ
    dof rx ry rz
    limits (-60.0 90.0)
           (-90.0 90.0)
           (-90.0 90.0)
  end
  begin
     id 19
     name lradius
     direction 1 -4.48999e-011 5.75106e-027   
     length 2.44373   
     axis 180 -30 -90   XYZ
    dof rx
    limits (-10.0 170.0)
  end
  begin
     id 20
     name lwrist
     direction 1 -4.48987e-011 1.53461e-026   
     length 1.22186   
     axis -1.09697e-014 90 90   XYZ
    dof ry
    limits (-180.0 0.0)
 end
  begin
     id 21 
     name lhand
     direction 1 -4.48881e-011 3.06923e-026   
     length 0.727502   
     axis -1.95843e-014 90 90   XYZ
    dof rx rz
    limits (-90.0 90.0)
           (-45.0 45.0)
  end
  begin
     id 22 
     name lfingers
     direction 1 -4.48907e-011 6.13845e-026   
     length 0.586531   
     axis -3.91686e-014 90 90   XYZ
    dof rx
    limits (0.0 90.0)
  end
  begin
     id 23
     name lthumb
     direction 0.707107 -6.3487e-011 0.707107   
     length 0.842145   
     axis -90 45 2.85299e-015   XYZ
    dof rx rz
    limits (-45.0 45.0)
           (-45.0 45.0)
  end
  begin
     id 24 
     name rclavicle
     direction -0.980998 0.169556 0.0943023   
     length 3.29272  
     axis 0 0 0   XYZ 
    dof ry rz
    limits (-10.0 20.0)
           (-20.0 0.0)
  end
  begin
     id 25 
     name rhumerus
     direction -1 -1.83355e-005 2.45537e-005  
     length 5.58976   
     axis 180 30 90   XYZ
    dof rx ry rz
    limits (-90.0 60.0)
           (-90.0 90.0)
           (-90.0 90.0)
  end
  begin
     id 26 
     name rradius
     direction -1 -4.48967e-011 5.97228e-027   
     length 2.4806   
     axis 180 30 90   XYZ
    dof rx
    limits (-10.0 170.0)
  end
  begin
     id 27 
     name rwrist
     direction -1 -4.48963e-011 1.53461e-026   
     length 1.2403   
     axis -1.09697e-014 -90 -90   XYZ
    dof ry
    limits (-180.0 0.0)
  end
  begin
     id 28
     name rhand
     direction -1 -4.48881e-011 3.06923e-026   
     length 0.816009   
     axis -1.95843e-014 -90 -90   XYZ
    dof rx rz
    limits (-90.0 90.0)
           (-45.0 45.0)
  end
  begin
     id 29
     name rfingers
     direction -1 -4.49018e-011 6.13845e-026   
     length 0.657887   
     axis -3.91686e-014 -90 -90   XYZ
    dof rx
    limits (0.0 90.0)
  end
  begin
     id 30
     name rthumb
     direction -0.707107 -6.34872e-011 0.707107   
     length 0.944599   
     axis -90 -45 -2.85299e-015   XYZ
    dof rx rz
    limits (-45.0 45.0)
           (-45.0 45.0)
  end
:hierarchy
  begin
    root lhipjoint rhipjoint lowerback
    lhipjoint lfemur
    lfemur ltibia
    ltibia lfoot
    lfoot ltoes
    rhipjoint rfemur
    rfemur rtibia
    rtibia rfoot
    rfoot rtoes
    lowerback upperback
    upperback thorax
    thorax lowerneck lclavicle rclavicle
    lowerneck upperneck
    upperneck head
    lclavicle lhumerus
    lhumerus lradius
    lradius lwrist
    lwrist lhand lthumb
    lhand lfingers
    rclavicle rhumerus
    rhumerus rradius
    rradius rwrist
    rwrist rhand rthumb
    rhand rfingers
  end

#!OML:ASF F:\VICON\USERDATA\INSTALL\rory3\rory3.ASF
:FULLY-SPECIFIED
:DEGREES
75
root 1.46881 16.6576 27.8308 31.2998 8.56721 0.720908
lowerback -17.0139 -4.27734 4.61308
upperback -11.759 -6.21547 4.39336
thorax -3.11022 -3.25882 1.20823
lowerneck -21.738 -4.84257 -3.07515
upperneck 33.9345 -6.20931 0.143631
head 15.7635 -3.00253 -0.638328
rclavicle 5.40197e-014 1.43125e-014
rhumerus -12.3382 -5.36762 -17.8989
rradius 27.9558
rwrist -4.1235
rhand 13.1182 6.64502
rfingers 7.12502
rthumb 38.0775 -19.1331
lclavicle 5.40197e-014 1.43125e-014
lhumerus 36.3373 -7.30647 12.1154
lradius 52.2395
lwrist 2.95786
lhand 18.6134 12.2165
lfingers 7.12502
lthumb 43.2412 36.3766
rfemur -55.4238 5.49279 27.0515
rtibia 40.4894
rfoot -56.3063 -31.6089
rtoes 47.6516
lfemur -11.1389 -3.00459 -25.4961
ltibia 30.0301
lfoot 2.2583 42.204
ltoes 37.6639
76
root 1.46955 16.6563 27.8358 31.2143 8.5728 0.530457
lowerback -17.2164 -4.20614 4.78253
upperback -11.5431 -6.16887 4.40327
thorax -2.78695 -3.23713 1.09977
lowerneck -22.2041 -4.48888 -2.62952
upperneck 34.225 -5.71756 -0.198083
head 15.9701 -2.78145 -0.780134
rclavicle -4.84538e-014 1.51076e-014
rhumerus -12.3024 -5.61711 -17.9173
rradius 27.99
rwrist -4.13704
rhand 13.0629 6.36594
rfingers 7.12502
rthumb 38.0252 -19.4264
lclavicle -4.84538e-014 1.51076e-014
lhumerus 36.2693 -7.13364 11.8105
lradius 52.276
lwrist 3.03466
lhand 18.4526 12.0543
lfingers 7.12502
lthumb 43.0909 36.268
rfemur -55.3069 5.34668 27.3775
rtibia 40.4666
rfoot -56.1123 -31.409
rtoes 47.7468
lfemur -11.091 -3.04053 -25.2964
ltibia 30.0977
lfoot 1.27846 42.2867
ltoes 38.4326
77
root 1.4714 16.6556 27.8402 31.2058 8.51696 0.542739
lowerback -17.4502 -4.14288 4.78338
upperback -11.3661 -6.11104 4.33764
thorax -2.47891 -3.20334 1.00633
lowerneck -22.591 -4.21534 -2.35291
upperneck 34.5268 -5.32851 -0.418938
head 16.1844 -2.60884 -0.86061
rclavicle 9.66342e-014 -4.13472e-014
rhumerus -12.3101 -6.06248 -17.8729
rradius 27.856
rwrist -4.02206
rhand 13.1156 6.42459
rfingers 7.12502
rthumb 38.075 -19.3542
lclavicle 9.66342e-014 -4.13472e-014
lhumerus 36.2886 -6.99637 11.5139
lradius 52.3312
lwrist 3.14765
lhand 18.4992 12.1691
lfingers 7.12502
lthumb 43.1345 36.3674
rfemur -55.2846 5.22332 27.43
rtibia 40.4621
rfoot -55.8883 -31.4961
rtoes 47.6242
lfemur -11.1026 -3.2058 -25.3382
ltibia 30.1533
lfoot 1.05459 42.3335
ltoes 38.47
78
root 1.47271 16.6549 27.8424 31.237 8.48079 0.576316
lowerback -17.6044 -4.0759 4.75275
upperback -11.2998 -6.03177 4.27543
thorax -2.32901 -3.16031 0.95188
lowerneck -22.3879 -3.95203 -2.20163
upperneck 34.5134 -4.97383 -0.47344
head 16.1185 -2.45174 -0.831736
rclavicle 1.04362e-013 -1.51076e-014
rhumerus -12.5863 -6.26232 -17.7488
rradius 27.9433
rwrist -4.07884
rhand 13.191 6.62912
rfingers 7.12502
rthumb 38.1463 -19.1302
lclavicle 1.04362e-013 -1.51076e-014
lhumerus 36.4455 -7.06581 11.1849
lradius 52.257
lwrist 3.41435
lhand 18.2543 12.2734
lfingers 7.12502
lthumb 42.9055 36.5526
rfemur -55.305 5.12941 27.4544
rtibia 40.475
rfoot -55.7399 -31.4243
rtoes 47.5263
lfemur -11.175 -3.33172 -25.383
ltibia 30.1783
lfoot 2.52376 42.3328
ltoes 37.0815
79
root 1.47457 16.6494 27.8422 31.2881 8.41203 0.581278
lowerback -17.8128 -4.01362 4.74288
upperback -11.1595 -5.96996 4.23098
thorax -2.07131 -3.12419 0.893279
lowerneck -22.3789 -3.67003 -2.06884
upperneck 34.5428 -4.6014 -0.469587
head 16.1232 -2.27825 -0.777485
rclavicle -6.18966e-014 -3.33958e-014
rhumerus -12.6316 -6.44551 -17.7132
rradius 28.0237
rwrist -4.1089
rhand 13.1827 6.59031
rfingers 7.12502
rthumb 38.1384 -19.1711
lclavicle -6.18966e-014 -3.33958e-014
lhumerus 36.5163 -7.0061 10.7416
lradius 52.3022
lwrist 3.85357
lhand 18.1108 12.4665
lfingers 7.12502
lthumb 42.7713 36.7928
rfemur -55.3596 5.07865 27.4722
rtibia 40.4689
rfoot -55.6021 -31.3457
rtoes 47.4308
lfemur -11.2402 -3.41672 -25.4333
ltibia 30.2181
lfoot -0.737604 42.4465
ltoes 39.8314
80
root 1.47696 16.6471 27.8457 31.2608 8.467 0.521868
lowerback -18.0129 -3.98567 4.82641
upperback -10.9286 -5.97149 4.21988
thorax -1.72736 -3.12069 0.804354
lowerneck -22.6816 -3.41745 -1.91888
upperneck 34.5891 -4.28014 -0.448167
head 16.2109 -2.11803 -0.736433
rclavicle -3.37188e-014 1.27222e-014
rhumerus -12.506 -6.86724 -17.7326
rradius 27.9765
rwrist -3.97934
rhand 13.0609 6.5812
rfingers 7.12502
rthumb 38.0234 -19.2117
lclavicle -3.37188e-014 1.27222e-014
lhumerus 36.5438 -6.68174 10.5106
lradius 52.322
lwrist 3.92105
lhand 18.085 12.4915
lfingers 7.12502
lthumb 42.7472 36.8262
rfemur -55.3193 4.87506 27.6652
rtibia 40.431
rfoot -55.2115 -31.5486
rtoes 47.2431
lfemur -11.244 -3.40679 -25.3418
ltibia 30.2877
lfoot -1.38935 42.4922
ltoes 40.4903
81
root 1.48197 16.6506 27.8505 31.1994 8.66283 0.287755
lowerback -18.1777 -3.93831 5.16205
upperback -10.7202 -5.98155 4.25464
thorax -1.45068 -3.13199 0.629573
lowerneck -23.0215 -3.19001 -1.75845
upperneck 34.6909 -3.98209 -0.48152
head 16.3341 -1.97411 -0.726674
rclavicle -5.06404e-014 -7.95139e-015
rhumerus -12.4356 -7.23474 -17.7209
rradius 27.8861
rwrist -3.95588
rhand 13.026 6.51916
rfingers 7.12502
rthumb 37.9904 -19.2827
lclavicle -5.06404e-014 -7.95139e-015
lhumerus 36.5701 -6.36958 10.264
lradius 52.2697
lwrist 4.07238
lhand 18.0125 12.5736
lfingers 7.12502
lthumb 42.6793 36.9319
rfemur -55.2151 4.48163 28.2062
rtibia 40.3616
rfoot -54.5386 -31.9141
rtoes 46.7333
lfemur -11.2792 -3.46712 -25.0146
ltibia 30.3753
lfoot 3.31786 42.3968
ltoes 36.3581
82
root 1.48817 16.6505 27.8531 31.0843 8.76187 0.120849
lowerback -18.2637 -3.90358 5.40183
upperback -10.4923 -5.99219 4.28786
thorax -1.18272 -3.13826 0.510264
lowerneck -23.39 -2.9892 -1.75903
upperneck 34.8597 -3.69245 -0.424511
head 16.5071 -1.84177 -0.652327
rclavicle -4.23908e-014 1.98785e-014
rhumerus -12.3445 -7.72094 -17.7046
rradius 27.8884
rwrist -3.76431
rhand 13.1315 6.41563
rfingers 7.12502
rthumb 38.0901 -19.359
lclavicle -4.23908e-014 1.98785e-014
lhumerus 36.61 -5.65712 10.7017
lradius 52.3079
lwrist 3.37311
lhand 18.3888 12.4177
lfingers 7.12502
lthumb 43.0313 36.6526
rfemur -55.0308 4.01585 28.7021
rtibia 40.2878
rfoot -53.9543 -31.7862
rtoes 46.5551
lfemur -11.2103 -3.57669 -24.8107
ltibia 30.4788
lfoot 3.67943 42.2916
ltoes 36.0342
83
root 1.48966 16.6495 27.857 31.0281 8.70784 0.0583034
lowerback -18.407 -3.86685 5.45286
upperback -10.2864 -5.97576 4.27833
thorax -0.891964 -3.12337 0.450423
lowerneck -23.689 -2.83047 -1.77891
upperneck 35.0318 -3.46205 -0.362239
head 16.6672 -1.73689 -0.581894
rclavicle 5.47155e-014 -2.14687e-014
rhumerus -12.2432 -8.50686 -17.7076
rradius 27.7357
rwrist -3.11112
rhand 13.2599 6.8932
rfingers 7.12502
rthumb 38.2113 -18.8482
lclavicle 5.47155e-014 -2.14687e-014
lhumerus 36.806 -4.01768 12.8238
lradius 52.7755
lwrist 0.775525
lhand 20.0745 12.463
lfingers 7.12502
lthumb 44.6045 36.1167
rfemur -54.9206 3.89883 28.8546
rtibia 40.2342
rfoot -53.6885 -31.7511
rtoes 46.5921
lfemur -11.1655 -3.64028 -24.7884
ltibia 30.5661
lfoot 4.18302 42.1328
ltoes 35.4287
84
root 1.50204 16.6534 27.8583 30.872 8.99172 -0.222142
lowerback -18.4335 -3.79757 5.97571
upperback -10.1144 -5.97681 4.28361
thorax -0.751416 -3.13819 0.15829
lowerneck -23.7037 -2.61185 -1.61214
upperneck 35.0683 -3.1537 -0.479461
head 16.6801 -1.60498 -0.598354
rclavicle 8.19987e-015 1.98785e-014
rhumerus -12.2756 -8.95389 -17.6636
rradius 27.6917
rwrist -2.71598
rhand 13.3732 7.12562
rfingers 7.12502
rthumb 38.3182 -18.5863
lclavicle 8.19987e-015 1.98785e-014
lhumerus 37.8634 -2.91004 14.1867
lradius 52.0247
lwrist -0.957549
lhand 21.1252 12.2865
lfingers 7.12502
lthumb 45.5818 35.5531
rfemur -54.7402 2.87105 29.7909
rtibia 40.184
rfoot -52.5951 -31.6909
rtoes 46.1606
lfemur -11.0547 -3.72331 -24.423
ltibia 30.6456
lfoot 5.01689 41.9677
ltoes 34.6644
85
root 1.48788 16.6446 27.8664 31.0522 8.61101 -0.122358
lowerback -18.1674 -3.79054 5.55367
upperback -10.5443 -5.85652 4.31884
thorax -1.29886 -3.07881 0.492173
lowerneck -23.0323 -2.32715 -1.37702
upperneck 35.2737 -2.68664 -0.868911
head 16.6081 -1.44444 -0.705805
rclavicle 3.08116e-014 3.65764e-014
rhumerus -12.5002 -8.4131 -17.496
rradius 27.7778
rwrist -2.55284
rhand 13.5595 7.05469
rfingers 7.12502
rthumb 38.494 -18.6084
lclavicle 3.08116e-014 3.65764e-014
lhumerus 38.2736 -2.61402 15.4845
lradius 51.3911
lwrist -2.3688
lhand 22.1716 12.0972
lfingers 7.12502
lthumb 46.5524 34.9582
rfemur -54.9025 4.16016 28.8971
rtibia 40.1613
rfoot -54.1852 -31.2749
rtoes 47.1162
lfemur -11.2747 -3.59109 -24.6397
ltibia 30.6991
lfoot 5.06127 41.9981
ltoes 34.4993
86
root 1.48421 16.6398 27.873 31.1681 8.47506 -0.186013
lowerback -16.34 -3.84333 5.60283
upperback -12.4279 -5.67336 4.50117
thorax -4.29553 -3.06357 0.958991
lowerneck -20.544 -2.02198 -1.50297
upperneck 36.1618 -2.09643 -1.24722
head 16.4564 -1.28816 -0.707839
rclavicle 4.0813e-014 1.51076e-014
rhumerus -13.3338 -5.35503 -16.9413
rradius 27.9379
rwrist -2.78979
rhand 13.8372 7.20315
rfingers 7.12502
rthumb 38.756 -18.3863
lclavicle 4.0813e-014 1.51076e-014
lhumerus 37.1195 -4.88576 16.1743
lradius 51.2845
lwrist -2.90517
lhand 22.6089 12.0704
lfingers 7.12502
lthumb 46.9572 34.7555
rfemur -55.013 4.95802 28.416
rtibia 40.1043
rfoot -54.7162 -31.6199
rtoes 47.1275
lfemur -11.4376 -3.47411 -24.6223
ltibia 30.7765
lfoot 6.05328 41.8591
ltoes 33.462
87
root 1.48152 16.638 27.8831 31.2778 8.30445 -0.157931
lowerback -16.7293 -3.85912 5.42143
upperback -12.0401 -5.72764 4.54752
thorax -3.63788 -3.06355 1.03863
lowerneck -21.5201 -1.79596 -1.34549
upperneck 36.3696 -1.75369 -1.33665
head 16.7998 -1.13522 -0.72413
rclavicle 8.46885e-014 -2.54444e-014
rhumerus -12.8292 -6.59297 -17.0271
rradius 27.6517
rwrist -2.28565
rhand 13.9841 7.41045
rfingers 7.12502
rthumb 38.8945 -18.1397
lclavicle 8.46885e-014 -2.54444e-014
lhumerus 36.1431 -5.23129 14.2239
lradius 51.9483
lwrist -1.04292
lhand 20.801 12.2858
lfingers 7.12502
lthumb 45.2805 35.674
rfemur -55.089 5.39833 28.0759
rtibia 40.0501
rfoot -54.2254 -32.8657
rtoes 46.0628
lfemur -11.5491 -3.40958 -24.7117
ltibia 30.8402
lfoot 7.12935 41.7161
ltoes 32.3607
88
root 1.48267 16.6371 27.8956 31.3327 8.31921 -0.304955
lowerback -16.9471 -3.79663 5.57152
upperback -11.9133 -5.68824 4.55836
thorax -3.40004 -3.04648 0.947008
lowerneck -21.8035 -1.65514 -1.19803
upperneck 36.5284 -1.5618 -1.41135
head 16.9507 -1.04591 -0.750674
rclavicle -5.01683e-014 8.74653e-015
rhumerus -12.862 -6.8635 -16.9764
rradius 27.7195
rwrist -2.22777
rhand 14.068 7.58959
rfingers 7.12502
rthumb 38.9737 -17.938
lclavicle -5.01683e-014 8.74653e-015
lhumerus 36.2628 -4.80186 14.417
lradius 51.7458
lwrist -1.26434
lhand 20.7831 12.2996
lfingers 7.12502
lthumb 45.2638 35.6945
rfemur -55.0633 5.17261 28.416
rtibia 39.964
rfoot -53.2196 -33.7229
rtoes 45.0226
lfemur -11.6425 -3.31303 -24.5457
ltibia 30.9339
lfoot 7.80873 41.5233
ltoes 31.6615
89
root 1.49132 16.6361 27.9044 31.2425 8.54518 -0.574123
lowerback -16.9238 -3.73056 6.03282
upperback -11.868 -5.65906 4.58313
thorax -3.41213 -3.05669 0.725488
lowerneck -21.8011 -1.57773 -1.27659
upperneck 36.7138 -1.44265 -1.32863
head 17.0508 -0.995872 -0.678454
rclavicle 3.90736e-014 1.82882e-014
rhumerus -12.9751 -6.94278 -16.9081
rradius 27.7321
rwrist -2.13116
rhand 14.0042 7.73152
rfingers 7.12502
rthumb 38.9135 -17.8132
lclavicle 3.90736e-014 1.82882e-014
lhumerus 36.2872 -4.54971 14.5304
lradius 51.6091
lwrist -1.37747
lhand 20.8822 12.295
lfingers 7.12502
lthumb 45.356 35.6529
rfemur -54.9133 4.30596 29.2714
rtibia 39.972
rfoot -52.2892 -33.2845
rtoes 44.9459
lfemur -11.5332 -3.26858 -24.1936
ltibia 30.9105
lfoot 7.88147 41.5398
ltoes 31.9917
